:version 1.10
:name ASF
:units
  mass 1
  length 1
  angle deg
:documentation
  ASF file generated by Kaydara
:root
  axis xyz
  order  tx ty tz rx ry rz
  position 0 0 0
  orientation 0 0 0
:bonedata
  begin
    id 1
    name RightUpLegDummy
    direction -0.718183 -0.695806 0.00816078
    length 4.904
    axis 0 0 0 xyz
  end
  begin
    id 2
    name RightUpLeg
    direction 3.53989e-006 -0.995788 0.0916897
    length 17.4976
    axis -3.49089 -0.000906621 0.000287158 xyz
    dof rx ry rz
  end
  begin
    id 3
    name RightLeg
    direction 0.00371093 -0.995096 -0.0988418
    length 16.5821
    axis 3.68512 0.0193738 -0.131023 xyz
    dof rx ry rz
  end
  begin
    id 4
    name RightFoot
    direction 0.000791514 -0.46099 0.887405
    length 3.77069
    axis 4.84075e-005 -0.120479 -0.188788 xyz
    dof rx ry rz
  end
  begin
    id 5
    name RightToes
    direction 0.00124746 -0.014064 0.9999
    length 3.85082
    axis 0.00048216 0.542163 -0.142577 xyz
    dof rx ry rz
  end
  begin
    id 6
    name SpineDummy
    direction 8.36599e-015 1 5.97571e-016
    length 4.6813
    axis 0 0 0 xyz
  end
  begin
    id 7
    name Spine
    direction -4.63632e-008 0.999988 0.00495137
    length 10.1015
    axis -0.00138897 0.000121419 3.25764e-006 xyz
    dof rx ry rz
  end
  begin
    id 8
    name Spine1
    direction 0 0 0
    length 0
    axis -0.00138896 0.000121452 2.39764e-006 xyz
    dof rx ry rz
  end
  begin
    id 9
    name HEadDummy
    direction -3.91456e-008 0.999999 0.00127422
    length 3.43865
    axis -0.00138896 0.000121452 2.39764e-006 xyz
  end
  begin
    id 10
    name HEad
    direction -0.0222688 0.980941 0.193023
    length 5.12695
    axis -0.00138895 0.000121452 2.39764e-006 xyz
    dof rx ry rz
  end
  begin
    id 11
    name LeftShoulder1Dummy
    direction 0.998891 -0.0402508 -0.0244456
    length 3.5433
    axis -0.00138896 0.000121452 2.39764e-006 xyz
  end
  begin
    id 12
    name LeftShoulder1
    direction 0.99951 -0.000327743 0.0313091
    length 4.05031
    axis -0.00138896 0.000121452 2.39764e-006 xyz
    dof rx ry rz
  end
  begin
    id 13
    name LeftArm
    direction 0.998561 -0.00100054 -0.0536182
    length 10.3537
    axis -23.1894 0.134784 0.96751 xyz
    dof rx ry rz
  end
  begin
    id 14
    name LeftForeArm
    direction 0.998903 0.00866434 0.046012
    length 8.70632
    axis -9.91835 -0.06569 -0.177792 xyz
    dof rx ry rz
  end
  begin
    id 15
    name LeftHand
    direction 0.992938 -0.0411636 0.11126
    length 5.32135
    axis -0.00960227 -0.00340091 0.185174 xyz
    dof rx ry rz
  end
  begin
    id 16
    name RightShoulderDummy
    direction -0.998891 -0.0402509 -0.0244414
    length 3.5433
    axis -0.00138896 0.000121452 2.39764e-006 xyz
  end
  begin
    id 17
    name RightShoulder
    direction -0.99951 -0.000327827 0.0313133
    length 4.05031
    axis 0.215806 0.000203644 -0.00680151 xyz
    dof rx ry rz
  end
  begin
    id 18
    name RightArm
    direction -0.998573 -0.000999583 -0.053403
    length 10.3947
    axis -23.2009 -0.134239 -0.9641 xyz
    dof rx ry rz
  end
  begin
    id 19
    name RightForeArm
    direction -0.998898 0.00868026 0.0461306
    length 8.68355
    axis -9.92322 0.0658061 0.178869 xyz
    dof rx ry rz
  end
  begin
    id 20
    name RightHand
    direction -0.992843 -0.0414603 0.112003
    length 5.28593
    axis -0.00960634 0.00330671 -0.185226 xyz
    dof rx ry rz
  end
  begin
    id 21
    name LeftUpLegDummy
    direction 0.718183 -0.695806 0.00816078
    length 4.904
    axis 0 0 0 xyz
  end
  begin
    id 22
    name LeftUpLeg
    direction -6.8115e-006 -0.995793 0.0916336
    length 17.4976
    axis -3.48766 0.00143441 -0.000523914 xyz
    dof rx ry rz
  end
  begin
    id 23
    name LeftLeg
    direction -0.00601357 -0.995091 -0.0987824
    length 16.5821
    axis 3.68177 -0.00654038 -0.00028478 xyz
    dof rx ry rz
  end
  begin
    id 24
    name LeftFoot
    direction -0.00417578 -0.460984 0.887399
    length 3.77069
    axis 1.87232e-006 4.66002e-005 -8.1837e-006 xyz
    dof rx ry rz
  end
  begin
    id 25
    name LeftToes
    direction 0.00818058 -0.00485161 0.999955
    length 3.85048
    axis 1.06246e-005 4.65855e-005 -8.18502e-006 xyz
    dof rx ry rz
  end
:hierarchy
  begin
    root RightUpLegDummy SpineDummy LeftUpLegDummy
    RightUpLegDummy RightUpLeg
    RightUpLeg RightLeg
    RightLeg RightFoot
    RightFoot RightToes
    SpineDummy Spine
    Spine Spine1
    Spine1 HEadDummy LeftShoulder1Dummy RightShoulderDummy
    HEadDummy HEad
    LeftShoulder1Dummy LeftShoulder1
    LeftShoulder1 LeftArm
    LeftArm LeftForeArm
    LeftForeArm LeftHand
    RightShoulderDummy RightShoulder
    RightShoulder RightArm
    RightArm RightForeArm
    RightForeArm RightHand
    LeftUpLegDummy LeftUpLeg
    LeftUpLeg LeftLeg
    LeftLeg LeftFoot
    LeftFoot LeftToes
  end

:SAMPLES-PER-SECOND 30
:FULLY-SPECIFIED
:DEGREES
17
root  4.6714 40.0239 1.92359 -176.08 -87.2953 -179.771
RightUpLeg  -6.50169 -9.86511 -10.3214
RightLeg  2.2928 4.33214 0.636674
RightFoot  2.70054 -1.63523 13.3884
RightToes  -1.28057e-009 0 -3.6325e-017
Spine  -4.53687 0.253511 2.63542
Spine1  7.86757 0.746541 -2.82511
HEad  -12.5167 -13.7438 7.79808
LeftShoulder1  1.80365 -5.60095 -12.7735
LeftArm  50.6624 25.8124 -39.0939
LeftForeArm  101.061 -79.8716 -51.9644
LeftHand  -0.348336 4.51007 46.2256
RightShoulder  1.39048 2.54658 16.3367
RightArm  52.297 -24.5479 30.5069
RightForeArm  101.648 80.5874 62.7188
RightHand  -3.65113 5.22642 -38.7272
LeftUpLeg  -3.30886 10.6911 10.3452
LeftLeg  2.6633 5.3458 1.50284
LeftFoot  0.26976 1.43287 -14.0652
LeftToes  -7.27922e-012 9.28972e-011 -9.04533e-012
18
root  4.6707 40.024 1.91972 -176.283 -87.276 -179.582
RightUpLeg  -6.49874 -9.84072 -10.2968
RightLeg  2.3065 4.32859 0.622379
RightFoot  2.69438 -1.63187 13.3352
RightToes  -1.28057e-009 0 -3.6325e-017
Spine  -4.42009 0.306967 2.56968
Spine1  7.59877 0.76412 -2.67523
HEad  -12.282 -13.9312 7.62938
LeftShoulder1  1.8274 -5.6724 -12.8892
LeftArm  51.1335 25.5763 -38.9578
LeftForeArm  100.56 -79.8169 -51.6077
LeftHand  -0.356081 4.48933 46.0986
RightShoulder  1.37548 2.54851 16.0573
RightArm  52.3761 -24.6585 30.7135
RightForeArm  101.526 80.5618 62.2208
RightHand  -3.70686 5.41715 -38.633
LeftUpLeg  -3.29478 10.7275 10.3792
LeftLeg  2.68667 5.31244 1.48155
LeftFoot  0.26138 1.43314 -14.0716
LeftToes  -7.27922e-012 9.28972e-011 -9.04533e-012
19
root  4.67089 40.0241 1.91602 -176.674 -87.2637 -179.209
RightUpLeg  -6.4826 -9.81179 -10.2675
RightLeg  2.30473 4.31686 0.607436
RightFoot  2.69101 -1.63151 13.3295
RightToes  -1.28057e-009 0 -3.6325e-017
Spine  -4.48318 0.337396 2.524
Spine1  7.6147 0.767093 -2.55924
HEad  -12.1489 -14.003 7.48035
LeftShoulder1  1.82743 -5.70891 -12.8024
LeftArm  51.4643 25.2689 -39.083
LeftForeArm  100.012 -79.7504 -51.158
LeftHand  -0.336666 4.5338 46.0053
RightShoulder  1.37754 2.61118 15.8381
RightArm  52.3925 -24.657 30.9351
RightForeArm  100.961 80.514 61.6789
RightHand  -3.71586 5.42309 -38.7002
LeftUpLeg  -3.28303 10.7599 10.4184
LeftLeg  2.71621 5.27052 1.47098
LeftFoot  0.251192 1.4326 -14.0704
LeftToes  -7.27922e-012 9.28972e-011 -9.04533e-012
20
root  4.66933 40.0242 1.916 -176.998 -87.2685 -178.901
RightUpLeg  -6.45494 -9.80121 -10.2548
RightLeg  2.29223 4.30617 0.601724
RightFoot  2.68947 -1.63349 13.3609
RightToes  -1.28057e-009 0 -3.6325e-017
Spine  -4.62726 0.345186 2.50149
Spine1  7.74349 0.759735 -2.49643
HEad  -12.0487 -13.924 7.37699
LeftShoulder1  1.81408 -5.73579 -12.5794
LeftArm  51.6565 25.0138 -39.3554
LeftForeArm  99.6065 -79.6982 -50.8057
LeftHand  -0.304904 4.61089 46.0896
RightShoulder  1.39407 2.70374 15.7606
RightArm  52.4077 -24.5527 31.0748
RightForeArm  99.9806 80.4377 60.9456
RightHand  -3.69362 5.25479 -39.0463
LeftUpLeg  -3.26739 10.7699 10.4317
LeftLeg  2.71775 5.27186 1.47596
LeftFoot  0.246344 1.43004 -14.053
LeftToes  -7.27922e-012 9.28972e-011 -9.04533e-012
21
root  4.66776 40.0243 1.91907 -177.015 -87.2785 -178.89
RightUpLeg  -6.43784 -9.81356 -10.2644
RightLeg  2.28477 4.30864 0.607861
RightFoot  2.68948 -1.63365 13.3635
RightToes  -1.28057e-009 0 -3.6325e-017
Spine  -4.63118 0.354735 2.42414
Spine1  7.63735 0.741523 -2.37178
HEad  -11.838 -13.773 7.29839
LeftShoulder1  1.81967 -5.80438 -12.4858
LeftArm  51.8562 24.8911 -39.4755
LeftForeArm  99.3404 -79.6691 -50.6295
LeftHand  -0.276529 4.68107 46.2754
RightShoulder  1.41123 2.7729 15.7885
RightArm  52.5193 -24.4886 31.0211
RightForeArm  99.267 80.3752 60.3013
RightHand  -3.68293 5.0691 -39.5757
LeftUpLeg  -3.25691 10.7662 10.4205
LeftLeg  2.70445 5.29623 1.47926
LeftFoot  0.24246 1.42767 -14.0372
LeftToes  -7.27922e-012 9.28972e-011 -9.04533e-012
22
root  4.66815 40.0242 1.92222 -176.812 -87.2691 -179.086
RightUpLeg  -6.45338 -9.82641 -10.279
RightLeg  2.29388 4.32801 0.615311
RightFoot  2.69123 -1.63164 13.3317
RightToes  -1.28057e-009 0 -3.6325e-017
Spine  -4.50309 0.364466 2.30142
Spine1  7.33105 0.712528 -2.19469
HEad  -11.5456 -13.6618 7.26913
LeftShoulder1  1.84482 -5.8911 -12.5824
LeftArm  52.0803 24.8775 -39.379
LeftForeArm  99.1537 -79.6561 -50.5811
LeftHand  -0.24452 4.75864 46.4182
RightShoulder  1.41969 2.80529 15.8088
RightArm  52.6726 -24.4959 30.9004
RightForeArm  99.1344 80.3502 59.9223
RightHand  -3.70187 5.01084 -39.9666
LeftUpLeg  -3.26467 10.7643 10.4092
LeftLeg  2.71159 5.30512 1.46968
LeftFoot  0.232323 1.42583 -14.0299
LeftToes  -7.27922e-012 9.28972e-011 -9.04533e-012
